<svg viewBox="0 0 448 512" xmlns="http://www.w3.org/2000/svg"><path d="M32 464c0 26.5 21.5 48 48 48h288c26.5 0 48-21.5 48-48V128H32v336zm272-256c0-8.9 7.1-16 16-16s16 7.125 16 16v224c0 8.875-7.125 16-16 16s-16-7.125-16-16V208zm-96 0c0-8.9 7.1-16 16-16s16 7.125 16 16v224c0 8.875-7.125 16-16 16s-16-7.125-16-16V208zm-96 0c0-8.9 7.1-16 16-16s16 7.125 16 16v224c0 8.9-7.1 16-16 16s-16-7.125-16-16V208zM432 32H320L308.42 8.84a15.998 15.998 0 0 0-14.31-8.844H153.9c-6.061 0-11.6 3.424-14.31 8.844L128 32H16C7.164 32 0 39.162 0 48v32c0 8.836 7.164 16 16 16h416c8.838 0 16-7.164 16-16V48c0-8.84-7.2-16-16-16z" fill="#ffffff" class="fill-000000"></path></svg>